<?xml version="1.0" encoding="utf-8"?>
<!-- Generator: Adobe Illustrator 27.5.0, SVG Export Plug-In . SVG Version: 6.00 Build 0)  -->
<svg version="1.1" id="Layer_1" xmlns="http://www.w3.org/2000/svg" xmlns:xlink="http://www.w3.org/1999/xlink" x="0px" y="0px"
	 viewBox="0 0 407.999 367.764" style="enable-background:new 0 0 407.999 367.764;" xml:space="preserve">
<g>
	<g>
		<g>
			<polygon style="fill:#BA865A;" points="401.879,290.275 401.871,79.569 192.588,75.713 192.588,362.219 192.656,362.247 			"/>
			<polygon style="fill:#D09565;" points="6.123,72.276 6.12,282.974 192.588,362.219 192.588,75.713 			"/>
		</g>
		<g>
			<polygon style="fill:#DBB693;" points="67.743,79.921 65.022,97.305 65.022,194.342 73.1,190.982 76.076,200.99 85.718,196.981 
				88.695,206.989 98.336,202.98 101.313,212.989 110.956,208.981 113.93,218.988 123.571,214.979 126.548,224.987 127.099,224.758 
				127.313,93.159 			"/>
		</g>
		<polygon style="fill:#DEAC7A;" points="6.12,72.273 220.385,5.516 401.879,79.575 192.656,151.547 		"/>
		<g>
			<polygon style="fill:#F3DEB4;" points="272.75,26.884 65.022,97.305 128.249,124.175 331.03,50.665 			"/>
		</g>
		<polygon style="opacity:0.52;fill:#DEAC7A;" points="6.12,72.273 220.385,5.516 401.879,79.575 221.802,13.048 		"/>
	</g>
	<path style="opacity:0.7;fill:#D09565;" d="M48.225,142.665c-0.469-8.159-1.672-16.405-4.181-24.264
		c-2.655-8.32-6.809-16.275-12.56-22.528c-4.771-5.357-12.289-8.376-14.564,1.224c-2.258,13.33-1.905,27.267-2.323,40.801
		c-0.248,28.76-0.527,57.52,0.131,86.196c0.161,3.122,0.407,6.32,1.132,9.173c1.302,6.096,6.038,9.878,10.973,5.517
		c2.808-2.376,4.743-5.842,6.39-9.136c3.097-6.358,5.679-13.044,7.78-19.877c6.435-21.542,8.044-44.548,7.234-66.906L48.225,142.665
		z"/>
	<path style="opacity:0.7;fill:#D09565;" d="M26.711,248.332c-5.097-3.348-10.12,2.699-11.422,7.22
		c-1.526,5.299-0.782,13.041,2.299,17.665c1.101,1.653,2.855,3.108,4.841,2.992c7.026-0.415,8.195-12.337,8.329-17.59
		C30.852,254.907,30.055,250.53,26.711,248.332z"/>
</g>
</svg>
